HIERARCHY
ROOT Hips
{
	OFFSET 11.386039 79.131096 -4.813618
	CHANNELS 6 Xposition Yposition Zposition Xrotation Yrotation Zrotation
	JOINT Chest
	{
		OFFSET 0.698955 13.615303 0.537687
		CHANNELS 3 Xrotation Yrotation Zrotation
		JOINT Chest2
		{
			OFFSET -11.353996 16.074150 8.472015
			CHANNELS 3 Xrotation Yrotation Zrotation
			JOINT Chest3
			{
				OFFSET -6.664364 11.916260 6.033991
				CHANNELS 3 Xrotation Yrotation Zrotation
				JOINT Neck
				{
					OFFSET -6.882091 14.718300 5.884263
					CHANNELS 3 Xrotation Yrotation Zrotation
					JOINT Head
					{
						OFFSET -6.682932 7.583115 2.768110
						CHANNELS 3 Xrotation Yrotation Zrotation
						End Site
						{
							OFFSET -6.636719 7.633163 2.741623
						}
					}
				}
				JOINT LeftCollar
				{
					OFFSET -3.680435 10.157570 9.224017
					CHANNELS 3 Xrotation Yrotation Zrotation
					JOINT LeftUpArm
					{
						OFFSET 16.867624 -0.642578 4.854883
						CHANNELS 3 Xrotation Yrotation Zrotation
						JOINT LeftLowArm
						{
							OFFSET 18.967003 -27.878380 -1.666731
							CHANNELS 3 Xrotation Yrotation Zrotation
							JOINT LeftHand
							{
								OFFSET 13.082617 -26.926048 2.186436
								CHANNELS 3 Xrotation Yrotation Zrotation
								End Site
								{
									OFFSET 2.859287 -5.884842 0.477861
								}
							}
						}
					}
				}
				JOINT RightCollar
				{
					OFFSET -9.958765 9.444939 3.663998
					CHANNELS 3 Xrotation Yrotation Zrotation
					JOINT RightUpArm
					{
						OFFSET -7.024146 -5.741302 -15.039786
						CHANNELS 3 Xrotation Yrotation Zrotation
						JOINT RightLowArm
						{
							OFFSET -0.195482 -32.325699 -9.733733
							CHANNELS 3 Xrotation Yrotation Zrotation
							JOINT RightHand
							{
								OFFSET -9.023546 -28.616848 0.778693
								CHANNELS 3 Xrotation Yrotation Zrotation
								End Site
								{
									OFFSET -1.972183 -6.254498 0.170192
								}
							}
						}
					}
				}
			}
		}
	}
	JOINT LeftUpLeg
	{
		OFFSET 5.911872 -0.622292 8.067322
		CHANNELS 3 Xrotation Yrotation Zrotation
		JOINT LeftLowLeg
		{
			OFFSET -36.242096 -5.733826 29.960346
			CHANNELS 3 Xrotation Yrotation Zrotation
			JOINT LeftFoot
			{
				OFFSET 24.818525 -31.797165 -19.327423
				CHANNELS 3 Xrotation Yrotation Zrotation
				JOINT LeftToe
				{
					OFFSET -14.434605 -17.717270 6.107406
					CHANNELS 3 Xrotation Yrotation Zrotation
					End Site
					{
						OFFSET -20.413902 -3.879225 11.304115
					}
				}
			}
		}
	}
	JOINT RightUpLeg
	{
		OFFSET -5.911884 0.622093 -8.067332
		CHANNELS 3 Xrotation Yrotation Zrotation
		JOINT RightLowLeg
		{
			OFFSET -35.578056 -28.888668 11.985745
			CHANNELS 3 Xrotation Yrotation Zrotation
			JOINT RightFoot
			{
				OFFSET 37.527645 -7.593349 -23.121380
				CHANNELS 3 Xrotation Yrotation Zrotation
				JOINT RightToe
				{
					OFFSET 11.097572 -19.278742 -8.045565
					CHANNELS 3 Xrotation Yrotation Zrotation
					End Site
					{
						OFFSET -3.572185 -23.169703 -3.156013
					}
				}
			}
		}
	}
}
MOTION
Frames: 5
Frame Time: 0.033333
18.086597 45.120686 -21.778769 -14.746395 9.891004 -4.654662 -9.477386 2.120558 -11.096494 -7.365825 8.050915 -13.709023 5.083639 6.356494 6.523769 -5.900465 8.074167 -10.175672 0.000001 -0.000001 -0.000005 -13.804828 2.845000 5.862563 -23.416122 -14.401538 31.919328 -7.926845 10.281777 3.076875 -0.000001 0.000001 -0.000003 11.726505 8.881284 -26.169358 -0.473131 30.528227 -55.730164 -1.069827 -2.911600 -50.044301 0.000002 0.000003 0.000003 -7.734926 -4.662936 -16.712471 5.056526 -2.927588 16.503776 9.558189 -5.092176 3.591705 -0.000000 0.000001 -0.000000 12.168808 -10.370753 -14.317550 -19.283244 -14.503253 34.265065 7.483853 -11.946175 -14.619202 -0.000002 0.000001 0.000000 
18.068027 45.116867 -21.937489 -14.868728 10.067126 -4.593928 -9.374847 2.041465 -10.890851 -7.185079 8.116047 -13.582231 4.983834 6.228009 6.272427 -5.838123 8.177286 -10.210971 0.000006 0.000002 -0.000000 -13.565031 2.756278 5.671088 -23.422131 -14.194814 32.572291 -7.820814 10.470878 3.789568 -0.000001 0.000001 -0.000001 11.816666 9.025664 -26.255739 -0.073526 30.397497 -56.201522 -1.394700 -2.887053 -49.184985 0.000001 0.000001 0.000001 -7.523270 -4.867165 -16.751372 4.831549 -2.872784 16.605035 9.836313 -5.299181 3.683238 -0.000001 0.000003 -0.000000 12.432920 -10.555443 -14.161094 -19.408937 -14.526491 34.094242 7.446085 -12.064118 -14.659577 -0.000001 -0.000000 -0.000000 
18.048145 45.111031 -22.101912 -14.760804 9.900061 -4.547377 -9.952126 2.008432 -11.106682 -6.608963 8.400661 -13.106557 5.102476 5.830143 5.985677 -6.050003 8.325464 -10.511263 -0.000000 0.000003 -0.000000 -13.747627 3.164908 5.849588 -23.410296 -14.336588 32.535152 -7.897353 10.387028 3.514485 -0.000000 0.000003 0.000000 11.910689 9.390793 -26.196957 0.535199 30.309408 -56.726500 -0.580632 -3.381770 -49.395522 0.000003 0.000002 -0.000000 -7.736073 -4.598417 -16.642977 5.109953 -2.948701 16.391535 9.789334 -5.439043 3.587966 -0.000001 0.000004 0.000001 11.974294 -10.196032 -14.137961 -19.914149 -14.878713 34.115968 8.837896 -12.021656 -13.944318 -0.000002 -0.000002 0.000001 
18.029207 45.110023 -22.254330 -14.555167 10.096657 -4.540338 -9.684383 1.883546 -10.667368 -6.265069 8.606333 -12.880411 5.165032 4.947728 5.220109 -6.013018 8.630484 -10.725537 0.000002 0.000002 -0.000004 -13.754573 2.947353 5.938633 -23.365278 -14.423713 31.826359 -8.056599 10.067398 3.712609 0.000002 0.000002 -0.000005 12.083003 10.262803 -26.248581 1.445323 29.922212 -57.375085 0.718977 -4.084959 -49.526135 0.000002 0.000001 -0.000000 -7.558530 -4.908693 -16.942907 4.600388 -2.781593 16.826289 9.953842 -5.872788 3.533095 0.000000 0.000001 0.000001 12.064902 -10.325196 -14.242109 -19.991952 -14.995685 34.188440 8.752125 -11.702761 -13.489829 -0.000002 -0.000000 -0.000001 
18.005774 45.110538 -22.402630 -14.826346 10.035810 -4.407709 -9.219952 1.929204 -10.585869 -6.933508 8.309311 -13.367342 5.292434 5.734517 5.801834 -6.090224 8.611493 -10.756156 0.000004 0.000000 -0.000000 -13.189965 2.405079 5.928443 -23.013163 -14.667333 31.427825 -8.040559 9.310550 3.403385 -0.000002 0.000001 -0.000003 12.464697 9.777085 -26.445996 1.181336 31.073461 -57.542404 1.547533 -4.317093 -48.535194 0.000002 0.000002 0.000001 -7.530740 -4.810869 -16.835590 4.999942 -2.866121 16.622602 9.580484 -5.446326 3.460630 0.000001 0.000003 0.000001 12.213165 -10.465043 -14.318390 -18.791445 -14.135794 33.992366 7.654468 -11.389631 -13.685396 -0.000002 0.000001 0.000001 
